<svg width="185" height="185" viewBox="0 0 185 185" fill="none" xmlns="http://www.w3.org/2000/svg">
<rect width="185" height="185" fill="#E7DBFD"/>
<path d="M185 136.206V185H12.179C12.0248 183.805 11.9092 182.765 11.8707 181.84C11.8321 181.069 11.7936 180.375 11.8707 179.758C11.9092 179.026 12.0248 178.371 12.179 177.793C12.2946 177.484 12.4103 177.176 12.5259 176.868C13.4509 174.902 15.378 173.476 18.7696 171.626C18.9238 171.279 19.1165 170.932 19.2707 170.508C19.3478 170.354 19.4248 170.2 19.5019 170.046C19.7717 169.506 20.0801 168.89 20.3884 168.234C25.2061 158.753 36.8071 140.06 61.2811 132.159C63.555 131.427 65.9061 130.81 68.4113 130.309C68.9123 130.155 69.3748 130.04 69.8759 129.962C73.6144 129.269 77.3144 128.652 80.9373 128.151C81.5925 128.074 82.2478 127.958 82.903 127.881C83.5967 127.804 84.2519 127.689 84.9071 127.611C86.3717 127.419 87.8363 127.265 89.2623 127.11C89.9175 127.033 90.5728 126.956 91.228 126.879C91.8832 126.802 92.4998 126.764 93.1165 126.686C107.493 125.299 120.404 125.106 130.695 125.453H131.35C131.889 125.492 132.429 125.492 132.93 125.53H133.393C134.048 125.569 134.703 125.607 135.32 125.646H135.474C140.022 125.877 143.876 126.185 146.959 126.532C147.19 126.571 147.46 126.571 147.691 126.609C147.961 126.648 148.385 126.609 148.886 126.609C149.426 126.532 150.12 126.455 150.852 126.378C154.166 126.031 158.869 125.646 161.104 128.151C163.802 126.185 170.431 126.185 172.551 131.581C176.713 129.269 181.762 131.427 183.497 136.553C183.959 136.399 184.46 136.283 185 136.245V136.206Z" fill="#D0BAF7"/>
<path d="M135.626 126.031C135.626 126.031 135.51 125.916 135.472 125.839C135.433 125.761 135.356 125.723 135.318 125.646C134.701 125.646 134.046 125.569 133.391 125.53H132.928C132.543 124.952 132.234 124.297 131.926 123.565C131.541 123.526 131.155 123.526 130.77 123.526C130.461 123.526 130.153 123.487 129.845 123.487C120.132 123.218 107.414 123.372 92.9604 124.798C92.3052 124.836 91.6885 124.914 91.0333 124.952C91.1104 125.569 91.149 126.185 91.226 126.879C90.5708 126.956 89.9156 127.033 89.2604 127.11C89.3375 127.727 89.376 128.344 89.376 129.037C90.0313 128.96 90.6479 128.883 91.2646 128.845C91.9198 128.768 92.575 128.691 93.2302 128.652C108.608 127.11 121.944 127.033 131.81 127.38C131.888 127.419 131.965 127.419 132.042 127.419C132.774 127.457 133.468 127.457 134.161 127.496H134.277C134.971 127.534 135.665 127.573 136.32 127.611C136.474 127.611 136.628 127.611 136.782 127.65C136.474 127.149 136.089 126.609 135.626 126.031ZM184.651 134.279C183.456 131.928 181.529 130.155 179.255 129.269C177.367 128.536 175.362 128.498 173.435 129.076C172.279 127.303 170.545 126.031 168.386 125.415C166.035 124.721 163.376 124.875 161.333 125.761C158.404 123.719 154.087 124.027 150.85 124.412C150.58 124.412 150.349 124.412 150.118 124.49C149.771 124.567 149.347 124.605 148.961 124.644C148.499 124.644 148.075 124.721 147.882 124.644C147.612 124.644 147.304 124.567 146.996 124.567C144.375 124.258 140.212 123.911 134.817 123.642C134.585 123.642 134.354 123.603 134.084 123.603C133.66 123.603 133.236 123.565 132.774 123.526H131.926C131.541 123.487 131.155 123.487 130.77 123.487C130.461 123.487 130.153 123.449 129.845 123.449C120.132 123.179 107.414 123.333 92.9604 124.759C92.3052 124.798 91.6885 124.875 91.0333 124.914C90.3781 124.991 89.7615 125.068 89.1063 125.145C87.4875 125.337 85.8302 125.53 84.1344 125.723C83.4792 125.839 82.7854 125.916 82.0917 125.993C81.4365 126.108 80.7813 126.185 80.126 126.301C76.7344 126.764 73.3042 127.342 69.7969 127.997C69.6813 127.997 69.6042 128.035 69.4885 128.035C67.7542 128.382 65.9813 128.768 64.1313 129.269C49.1 133.354 30.7156 143.529 18.3438 168.042C18.0354 168.658 17.7271 169.275 17.4188 169.93C17.3802 170.007 17.3417 170.123 17.3031 170.2C14.2969 171.857 12.3698 173.322 11.2521 175.172C10.5969 176.251 10.2115 177.407 10.0187 178.833C9.94167 179.489 9.90313 180.182 9.94167 180.953C9.94167 181.762 9.98021 182.649 10.0958 183.612C8.28437 183.844 6.55 184.306 5.04688 184.961H14.1042C13.9885 184.036 13.8729 183.227 13.8344 182.495C13.7573 181.724 13.7188 181.03 13.7188 180.452C13.7188 179.681 13.7958 179.026 13.9885 178.448C14.5667 176.367 16.224 175.133 19.6927 173.283C20.0396 173.091 20.3479 172.782 20.5406 172.397C20.6948 172.089 20.8104 171.78 20.9646 171.51C21.1958 170.971 21.4656 170.47 21.6969 169.969C31.6406 150.12 45.7083 140.137 58.4656 135.204C61.0865 134.164 63.6688 133.393 66.0969 132.776C67.5229 132.391 68.9104 132.082 70.2208 131.812C74.1521 131.08 77.9677 130.464 81.7448 129.962C82.4 129.847 83.0552 129.77 83.7104 129.693C84.4042 129.577 85.0979 129.5 85.7531 129.461C86.9865 129.269 88.1813 129.115 89.376 128.999C90.0313 128.922 90.6479 128.845 91.2646 128.806C91.9198 128.729 92.575 128.652 93.2302 128.614C108.608 127.072 121.944 126.995 131.81 127.342C131.888 127.38 131.965 127.38 132.042 127.38C132.774 127.419 133.468 127.419 134.161 127.457H134.277C134.971 127.496 135.665 127.534 136.32 127.573C136.474 127.573 136.628 127.573 136.782 127.611C141.176 127.843 144.568 128.151 146.803 128.382C147.034 128.421 147.266 128.421 147.458 128.459C147.844 128.459 148.268 128.459 148.73 128.459C149.231 128.459 149.848 128.382 150.542 128.305H150.696C153.471 127.958 157.98 127.496 159.676 129.346C160.331 130.078 161.41 130.194 162.22 129.616C163.183 128.922 165.303 128.498 167.307 129.076C168.965 129.577 170.159 130.618 170.776 132.198C170.969 132.737 171.393 133.123 171.932 133.316C172.433 133.508 173.011 133.47 173.512 133.2C174.9 132.429 176.442 132.275 177.868 132.853C179.602 133.508 180.99 135.05 181.683 137.093C182.03 138.095 183.071 138.634 184.111 138.326C184.381 138.249 184.69 138.172 184.998 138.095V134.202C184.998 134.202 184.767 134.241 184.651 134.241V134.279Z" fill="#191919"/>
<path d="M128.611 87.027C128.38 96.4697 130.076 119.71 134.855 129.037C131.849 136.437 98.8185 145.765 88.2966 140.253C84.7122 130.733 77.0039 118.13 77.0039 105.874C77.081 93.5791 128.842 79.2802 128.573 87.027H128.611Z" fill="#FFE3D7"/>
<path d="M97.5479 143.838C93.4625 143.838 89.9167 143.259 87.4115 141.949C86.9875 141.718 86.6792 141.371 86.4865 140.908C85.5615 138.442 84.3281 135.705 83.0177 132.815C79.2792 124.605 75.0781 115.278 75.0781 105.835C75.0781 101.943 78.701 97.9729 85.7927 94.0031C98.7813 86.7573 122.831 80.3208 128.767 83.9052C129.961 84.6375 130.578 85.7552 130.54 87.0656C130.308 96.8552 132.158 119.518 136.591 128.113C136.86 128.614 136.86 129.192 136.668 129.731C135.049 133.663 128.266 136.861 122.831 138.866C114.93 141.756 105.333 143.799 97.625 143.799L97.5479 143.838ZM89.801 138.827C96.199 141.525 110.691 139.213 121.444 135.281C128.034 132.853 131.465 130.502 132.659 128.96C127.996 118.67 126.416 96.4313 126.647 86.9885C124.72 85.4083 108.263 88.0292 93.4625 94.5813C82.7479 99.2833 78.9323 103.523 78.9323 105.913C78.9323 114.469 82.9792 123.41 86.525 131.273C87.7198 133.932 88.876 136.476 89.801 138.866V138.827Z" fill="#191919"/>
<path d="M87.3354 18.5771C94.9281 14.6844 108.071 15.9948 114.661 19.4635C124.875 24.8594 128.652 34.3791 131.273 38.426C133.855 42.4344 147.345 49.7573 146.381 70.3C145.456 90.8427 139.906 91.6135 142.18 101.981C144.454 112.31 149.272 114.777 148.886 126.224C148.501 137.671 138.673 153.511 156.595 159.601C143.992 162.299 137.671 157.404 137.401 147.576C137.17 137.748 139.251 133.585 133.932 127.149C128.614 120.712 128.074 103.176 127.573 90.8427C126.108 82.4406 86.2177 101.981 87.9521 111.347C89.5708 120.366 92.3458 123.179 90.8427 136.823C89.3781 150.274 67.4479 147.036 66.6385 153.743C65.251 164.342 55.5 161.181 52.8406 173.206C50.2198 185.231 12.2948 185.424 6.43646 175.789C11.2542 175.904 15.5323 174.517 19.7333 170.084C12.3333 170.277 6.32083 167.502 4.04688 158.637C13.9135 162.106 22.2385 155.593 24.8594 148.077C28.251 138.634 20.774 134.164 20.4656 120.019C20.2729 111.578 22.9708 109.189 27.0563 104.795C26.3625 101.711 21.0823 92.2687 28.8677 81.1687C36.6531 70.0687 44.2458 67.9489 48.2542 57.8125C51.8771 48.4083 54.5365 18.8469 87.2969 18.5385L87.3354 18.5771Z" fill="#82756F"/>
<path d="M28.7903 184.538C18.3455 184.538 7.9778 181.955 4.81738 176.714C4.47051 176.097 4.43196 175.365 4.81738 174.748C5.16426 174.131 5.81946 173.823 6.55176 173.784C9.8278 173.861 12.4872 173.206 14.9538 171.588C8.32467 170.393 4.08509 166.192 2.23509 159.061C2.04238 158.368 2.27363 157.635 2.81321 157.173C3.3528 156.672 4.08509 156.556 4.7403 156.788C8.32467 158.059 11.9476 157.905 15.2236 156.325C18.808 154.591 21.7372 151.276 23.1247 147.383C24.7434 142.913 23.5486 139.752 21.9299 135.397C20.5038 131.581 18.7695 126.802 18.6153 120.019C18.4226 111.308 21.159 108.302 24.9747 104.255C24.8976 104.063 24.8205 103.831 24.7434 103.6C23.2788 99.2833 20.1955 90.2646 27.3643 80.0511C30.8715 75.0406 34.3403 71.8031 37.4236 68.951C41.3549 65.2896 44.4382 62.4375 46.5195 57.1188C47.0205 55.8083 47.5215 54.0354 48.0997 51.9542C51.5299 39.775 57.8892 17.1511 86.9111 16.65C95.1205 12.7188 108.494 14.0292 115.586 17.7677C124.489 22.4698 128.652 29.9083 131.427 34.8417C131.966 35.8438 132.467 36.6917 132.93 37.3854C133.354 38.0406 134.356 39.0042 135.474 40.0833C140.253 44.7083 149.117 53.2646 148.347 70.3771C147.884 80.8219 146.227 86.3719 144.993 90.4188C143.799 94.4271 143.066 96.8167 144.107 101.596C144.955 105.527 146.188 108.225 147.422 110.884C149.31 115.047 151.122 118.978 150.89 126.301C150.775 129.346 150.081 132.622 149.387 135.821C147.267 145.456 145.456 153.781 157.288 157.79C158.098 158.059 158.637 158.869 158.599 159.717C158.56 160.565 157.943 161.297 157.096 161.49C149.927 163.031 144.377 162.299 140.6 159.293C137.401 156.749 135.705 152.818 135.589 147.576C135.512 145.032 135.589 142.835 135.705 140.908C135.936 135.513 136.052 132.545 132.544 128.305C127.033 121.638 126.339 105.411 125.8 92.4229L125.723 90.9198C125.723 90.9198 125.646 90.9198 125.414 90.8427C121.213 89.3396 104.293 96.1229 94.6965 104.255C90.8424 107.493 89.7247 109.844 89.9174 110.923C90.3799 113.39 90.8809 115.355 91.4205 117.282C92.7695 122.37 93.9643 126.802 92.8465 136.977C91.8445 146.189 82.7486 148.655 76.1195 150.467C72.6893 151.392 68.7965 152.432 68.6424 153.935C67.833 160.025 64.4799 162.338 61.5122 164.38C58.6601 166.346 55.9622 168.234 54.8059 173.553C53.7268 178.564 47.9455 182.186 38.5413 183.728C35.458 184.229 32.1434 184.499 28.8288 184.499L28.7903 184.538ZM11.0611 177.253C16.6111 180.298 27.9038 181.608 37.8476 179.951C45.3632 178.718 50.258 176.02 50.9903 172.744C52.4934 165.922 56.232 163.301 59.2768 161.22C62.0132 159.331 64.2101 157.828 64.7497 153.434C65.2507 149.388 69.9913 148.116 75.0403 146.728C82.7486 144.647 88.2986 142.681 88.9538 136.553C89.9945 127.072 88.9538 123.179 87.6434 118.284C87.1038 116.28 86.5643 114.238 86.1018 111.617C85.5622 108.649 87.6049 105.18 92.1913 101.288C100.863 93.9261 119.787 84.6761 126.725 87.1813C128.266 87.7594 129.268 88.8771 129.538 90.4188L129.615 92.2302C130.116 104.024 130.772 120.134 135.474 125.839C139.906 131.196 139.752 135.32 139.521 141.024C139.443 142.874 139.366 144.994 139.405 147.46C139.521 151.507 140.715 154.436 142.951 156.248C144.647 157.597 146.998 158.291 149.927 158.368C141.756 152.432 143.837 142.874 145.572 134.934C146.265 131.774 146.921 128.806 146.998 126.108C147.19 119.672 145.687 116.319 143.876 112.426C142.642 109.728 141.255 106.683 140.33 102.367C139.097 96.6625 140.06 93.3865 141.293 89.2625C142.527 85.1771 144.03 80.1281 144.492 70.1844C145.186 54.8448 137.439 47.3292 132.814 42.8583C131.427 41.5479 130.348 40.4688 129.692 39.4667C129.191 38.6958 128.69 37.7708 128.074 36.6917C125.53 32.1438 121.676 25.2833 113.775 21.1594C107.531 17.8833 95.0049 16.8042 88.2215 20.2729C87.8747 20.4271 87.5278 20.5042 87.1424 20.4656C60.857 20.8125 55.1528 40.9313 51.7997 52.9563C51.183 55.1146 50.6434 57.0031 50.1038 58.4677C47.6757 64.5958 43.9757 68.0646 40.0445 71.7261C36.9611 74.5781 33.8007 77.5458 30.5247 82.2479C24.4736 90.8813 27.0174 98.3198 28.4049 102.328C28.6747 103.138 28.9059 103.793 29.0215 104.332C29.1757 104.949 29.0215 105.604 28.559 106.067L27.9038 106.76C24.3195 110.615 22.3538 112.696 22.508 119.903C22.6622 126.07 24.2038 130.309 25.5913 134.048C27.3257 138.789 28.8674 142.874 26.7861 148.655C25.0903 153.473 21.4288 157.635 16.9195 159.755C13.8361 161.22 10.483 161.721 7.12988 161.258C9.3653 166.038 13.4122 168.234 19.7715 168.042C20.5038 168.042 21.2747 168.466 21.583 169.198C21.8913 169.93 21.7372 170.74 21.2361 171.318C18.1913 174.517 14.9153 176.444 11.1382 177.215L11.0611 177.253Z" fill="#191919"/>
<path d="M85.177 34.1479C89.1853 31.6427 95.0051 29.4458 100.863 32.7604C106.683 36.075 111.655 46.2886 115.162 50.9906C118.67 55.6927 127.688 54.999 125.954 69.2208C127.727 65.1354 131.042 59.7781 137.979 61.8208C146.535 65.3667 142.026 78.2781 139.367 82.0552C137.285 84.9458 132.468 89.725 128.652 87.0271C130.039 95.2365 127.843 100.555 121.522 106.606C115.201 112.696 106.298 120.134 96.0072 119.71C85.7165 119.286 70.8009 107.57 66.754 95.9302C63.6707 86.025 65.829 81.9011 64.904 78.8948C64.3645 77.3531 63.7863 76.5438 63.4395 75.1948C64.9811 70.4542 67.0624 63.4011 66.754 52.6479C66.5613 42.0104 70.9551 33.4927 85.177 34.1865V34.1479Z" fill="#FFE3D7"/>
<path d="M96.776 121.638C96.4677 121.638 96.1594 121.638 95.851 121.638C84.4042 121.137 69.0646 108.726 64.8635 96.5469C62.7823 89.8021 62.975 85.4855 63.0906 82.6334C63.1677 81.2073 63.2063 80.2053 62.975 79.473C62.7823 78.8948 62.551 78.3938 62.3198 77.8927C62.0115 77.1605 61.7031 76.5053 61.4719 75.6959C61.3948 75.349 61.3948 74.9636 61.4719 74.6167C62.7052 70.7625 65.0177 63.6323 64.7094 52.725C64.5938 45.7105 66.3667 40.3917 69.951 36.8844C73.3427 33.6084 78.2375 32.0282 84.5583 32.2594C90.6479 28.598 96.5833 28.2511 101.709 31.1417C106.334 33.7625 110.266 40.0448 113.426 45.0938C114.582 46.9438 115.623 48.6396 116.586 49.9115C117.396 50.9907 118.629 51.7615 120.094 52.648C122.984 54.4209 126.723 56.7334 127.725 62.7459C131.232 59.123 135.241 59.123 138.363 60.048C141.407 61.2813 143.334 63.4782 144.221 66.4459C146.071 72.7667 142.641 80.6292 140.829 83.25C138.17 86.9886 134.393 89.8407 130.77 89.8407C131.271 96.8938 128.843 102.213 122.715 108.109C116.047 114.507 107.105 121.753 96.699 121.753L96.776 121.638ZM65.4031 75.1948C65.5573 75.5803 65.7115 75.9271 65.8656 76.274C66.1354 76.8521 66.4052 77.4688 66.675 78.2396C67.1375 79.7042 67.0604 81.1303 66.9833 82.7875C66.8677 85.524 66.675 89.2625 68.5635 95.3136C72.1865 105.797 86.2927 117.359 96.0438 117.745C105.332 118.13 113.85 111.231 120.132 105.18C126.222 99.3605 127.956 94.6584 126.684 87.2969C126.569 86.5261 126.916 85.7553 127.571 85.3313C128.226 84.9073 129.074 84.9459 129.691 85.3698C132.311 87.2198 136.397 82.7105 137.746 80.8219C139.442 78.3938 141.908 71.7646 140.598 67.3323C140.058 65.4823 138.941 64.249 137.168 63.5167C133.082 62.3219 130.076 64.2875 127.648 69.9146C127.262 70.8011 126.299 71.2636 125.374 70.9938C124.449 70.7625 123.832 69.8375 123.948 68.9125C125.027 60.048 121.828 58.0823 118.128 55.7698C116.471 54.7678 114.775 53.7271 113.542 52.0698C112.54 50.7209 111.422 48.948 110.189 47.0209C107.259 42.3573 103.598 36.5375 99.8208 34.3792C95.8125 32.1053 91.1875 32.5678 86.1 35.7282C86.0615 35.7282 85.9844 35.8053 85.9458 35.8053C85.6375 35.9594 85.3292 36.0365 84.9823 36.0365C79.4708 35.7667 75.3469 36.9615 72.649 39.5823C69.8354 42.3188 68.4865 46.674 68.5635 52.5709C68.8719 63.5553 66.675 70.9553 65.326 75.1563L65.4031 75.1948Z" fill="#191919"/>
<path d="M65.7122 68.7198C65.7122 68.7198 65.4809 68.7198 65.3653 68.7198C64.3247 68.5271 63.6309 67.525 63.7851 66.4844C64.0549 64.8657 65.4424 63.0157 67.408 61.7438C69.9903 60.048 73.2278 59.5084 76.4653 60.2407C77.5059 60.4719 78.1611 61.5125 77.9299 62.5532C77.6986 63.5938 76.658 64.249 75.6174 64.0177C72.7653 63.3625 70.7611 64.1719 69.5278 64.9813C68.1788 65.8677 67.6393 66.9084 67.6007 67.1782C67.4466 68.1032 66.6372 68.7584 65.7122 68.7584V68.7198Z" fill="#191919"/>
<path d="M90.4564 61.5896C89.9553 61.5896 89.4928 61.3969 89.1074 61.0115C88.3366 60.2792 88.3366 59.0458 89.1074 58.275C93.3085 54.0354 102.057 53.6115 107.145 57.3886C107.993 58.0052 108.186 59.2386 107.53 60.0865C106.914 60.9344 105.68 61.1271 104.832 60.4719C101.248 57.8125 94.696 58.0823 91.8439 60.9729C91.4585 61.3583 90.9574 61.5511 90.4949 61.5511L90.4564 61.5896Z" fill="#191919"/>
<path d="M99.2072 69.4136C98.5134 69.4136 97.8582 69.0281 97.5113 68.3729L96.7405 66.9084C96.2394 65.9834 96.6249 64.7886 97.5499 64.3261C98.4749 63.825 99.6697 64.2104 100.132 65.1354L100.903 66.6C101.404 67.525 101.019 68.7198 100.094 69.1823C99.8238 69.3365 99.5155 69.4136 99.2072 69.4136Z" fill="#191919"/>
<path d="M75.4258 74.7323C74.732 74.7323 74.0383 74.3469 73.6914 73.6531L72.9206 72.15C72.4581 71.1864 72.8435 70.0302 73.7685 69.5677C74.732 69.1052 75.8883 69.4906 76.3508 70.4156L77.1216 71.9187C77.5841 72.8823 77.1987 74.0385 76.2737 74.501C76.0039 74.6552 75.6956 74.6937 75.4258 74.6937V74.7323Z" fill="#191919"/>
<path d="M83.4824 98.821C88.8783 97.3949 95.546 97.973 105.952 90.8428C99.246 96.4314 101.404 102.213 94.4283 103.754C87.8762 105.219 90.1501 100.17 83.4824 98.821Z" fill="white"/>
<path d="M92.3464 105.951C89.7641 105.951 88.4922 104.756 87.2589 103.292C86.3339 102.174 85.4859 101.249 83.0964 100.748C82.2099 100.555 81.5932 99.8229 81.5547 98.8979C81.5547 98.0114 82.1328 97.2021 82.9807 96.9708C84.3297 96.6239 85.7172 96.3927 87.2589 96.1229C91.9609 95.3521 97.2797 94.4656 104.834 89.2625C105.682 88.6843 106.838 88.8771 107.455 89.6864C108.071 90.4958 107.956 91.6906 107.146 92.3458C104.487 94.5812 103.408 96.7781 102.367 98.8979C101.018 101.711 99.5922 104.602 94.813 105.643C93.8495 105.835 93.0401 105.951 92.3464 105.951ZM89.2245 99.7073C89.5714 100.054 89.8797 100.44 90.188 100.748C91.2286 101.981 91.5755 102.367 94.0036 101.866C96.9714 101.21 97.6651 99.7843 98.937 97.1635C98.9755 97.0864 99.0141 96.9708 99.0911 96.8937C95.2755 98.551 92.0766 99.2062 89.263 99.7073H89.2245Z" fill="#191919"/>
<path d="M131.272 78.6636C131.272 78.6636 130.964 78.6636 130.771 78.5865C129.731 78.3167 129.114 77.2761 129.384 76.2355C130.501 72.073 132.274 67.2938 136.283 66.9084C137.323 66.8313 138.287 67.6021 138.364 68.6428C138.479 69.7219 137.67 70.6469 136.629 70.724C136.09 70.7626 134.625 71.4948 133.122 77.199C132.891 78.0469 132.12 78.6251 131.272 78.6251V78.6636Z" fill="#191919"/>
<path d="M79.7405 91.1126C79.5093 91.1126 79.278 91.1126 79.0082 91.1126C76.2332 90.8813 74.9228 89.4938 74.3447 88.3376C71.878 83.5584 76.4645 80.6293 79.5478 78.6636C81.1665 77.623 83.402 76.2355 83.1707 75.3491C82.9009 74.3084 83.5561 73.2678 84.5582 72.998C85.5603 72.7282 86.6395 73.3834 86.9093 74.3855C87.7957 77.9313 84.3655 80.1282 81.5905 81.8626C77.8134 84.2522 77.0811 85.1772 77.7749 86.5261C77.852 86.6803 78.0832 87.1428 79.3165 87.2199C82.9395 87.5282 88.5665 84.4834 89.4915 83.2116C90.1082 82.3636 91.3415 82.1709 92.1895 82.7876C93.0374 83.4043 93.2301 84.6376 92.6134 85.4855C90.9561 87.7209 84.4811 91.0741 79.7405 91.0741V91.1126Z" fill="#191919"/>
<path d="M84.7936 29.2531H84.7166C83.6374 29.2146 82.828 28.2896 82.8666 27.2489C82.9822 24.2041 84.4082 19.4635 85.7572 17.4594C86.3738 16.5729 87.5686 16.3802 88.4551 16.9583C89.3416 17.575 89.5728 18.7698 88.9561 19.6562C88.1853 20.7739 86.8363 24.8208 86.7207 27.4031C86.6822 28.4437 85.8343 29.2531 84.7936 29.2531Z" fill="#191919"/>
<path d="M45.6725 117.205C38.6194 117.205 29.6778 114.199 25.3611 105.527C24.8986 104.564 25.284 103.407 26.2475 102.945C27.2111 102.482 28.3673 102.868 28.8298 103.831C32.0288 110.306 38.234 112.349 41.6642 113.004C46.6361 113.929 50.3361 112.927 50.9142 112.426C51.184 111.578 51.8007 111.385 52.6871 111.424C54.46 111.54 55.9632 111.347 57.1194 111.039C55.2309 110.73 53.4194 109.959 51.8778 108.765C48.6017 106.259 46.9059 102.251 47.06 97.5104C47.2913 90.3417 51.2996 86.4104 55.1923 82.5948C57.7361 80.0896 60.1257 77.7386 61.6673 74.424C62.0913 73.4604 63.2475 73.0365 64.2111 73.4604C65.1746 73.9229 65.5986 75.0406 65.1746 76.0042C63.3632 79.9354 60.5882 82.6719 57.9288 85.3313C54.3059 88.9156 51.1455 91.999 50.9528 97.6261C50.8371 101.095 51.9934 103.985 54.2673 105.681C56.233 107.184 58.9309 107.685 61.2819 106.992C61.86 106.799 62.4767 106.915 62.9778 107.261C63.4788 107.608 63.7486 108.148 63.7871 108.765C63.8642 110.229 63.2861 111.54 62.1684 112.619C60.3569 114.392 57.235 115.355 53.535 115.278C51.9934 116.627 49.2184 117.013 47.4069 117.167C46.8673 117.167 46.3278 117.205 45.7496 117.205H45.6725Z" fill="#191919"/>
<path d="M56.0785 168.311C55.7317 168.311 55.3848 168.196 55.0379 168.003C54.1515 167.425 53.8817 166.23 54.4598 165.344C58.2754 159.293 57.6202 156.942 56.5796 153.049C56.0015 150.891 55.2306 148.193 55.2306 144.454C55.2306 137.941 59.239 134.086 62.4379 130.965C64.5963 128.883 66.4463 127.072 66.7546 124.991C66.9088 123.95 67.9108 123.218 68.9515 123.372C69.9921 123.526 70.7244 124.49 70.5702 125.569C70.0692 128.922 67.564 131.388 65.0973 133.74C62.1296 136.63 59.0463 139.598 59.0463 144.454C59.0463 147.653 59.6629 149.85 60.241 152.008C61.3973 156.248 62.3994 159.909 57.6588 167.386C57.2733 167.965 56.6567 168.273 56.04 168.273L56.0785 168.311Z" fill="#191919"/>
</svg>
