<svg width="44" height="44" viewBox="0 0 44 44" fill="none" xmlns="http://www.w3.org/2000/svg">
<path d="M22 0C37 0 44 7 44 22C44 37 37 44 22 44C7 44 0 37 0 22C0 7 7 0 22 0Z" fill="#EEEEEE"/>
<path d="M14.9598 25.4209C15.3713 25.2151 15.872 25.3825 16.0779 25.7939C16.9992 27.6365 18.8566 28.6669 21.9998 28.667C22.4598 28.6672 22.8328 29.0399 22.8328 29.5C22.8328 29.9601 22.4599 30.3328 21.9998 30.333C18.4769 30.3329 15.8885 29.1408 14.5877 26.5391C14.3822 26.1276 14.5486 25.6268 14.9598 25.4209ZM25.9207 13.6709C26.3786 13.6273 26.785 13.963 26.8289 14.4209C27.0428 16.6577 28.1323 21.2243 29.4344 24.3193C29.607 24.7299 29.4265 25.2043 29.0242 25.3955C26.075 26.7975 23.0311 26.1388 21.4256 24.6123C21.0923 24.2952 21.0784 23.7671 21.3953 23.4336C21.7124 23.1003 22.2405 23.0875 22.574 23.4043C23.527 24.3104 25.4717 24.895 27.5848 24.1836C26.3635 21.0005 25.3825 16.8044 25.1697 14.5801C25.1259 14.122 25.4627 13.7149 25.9207 13.6709ZM17.8328 13.667C19.2135 13.667 20.3328 14.7863 20.3328 16.167C20.3326 17.5475 19.2134 18.667 17.8328 18.667C16.4525 18.6667 15.333 17.5474 15.3328 16.167C15.3328 14.7865 16.4524 13.6673 17.8328 13.667Z" fill="#676767"/>
</svg>
