<svg width="44" height="44" viewBox="0 0 44 44" fill="none" xmlns="http://www.w3.org/2000/svg">
<rect width="44" height="44" fill="#B79FE9"/>
<path d="M21.8854 13.1276C22.8978 13.1278 23.7187 13.9485 23.7187 14.9609C23.7186 15.9732 22.8977 16.7941 21.8854 16.7942H19.3682V32.0973C19.3678 33.1094 18.5469 33.9303 17.5348 33.9307C16.5225 33.9307 15.7018 33.1096 15.7015 32.0973V16.7942H11C9.98755 16.7942 9.16679 15.9733 9.16666 14.9609C9.16666 13.9484 9.98747 13.1276 11 13.1276H21.8854ZM30.3664 8.36971C30.4254 8.2101 30.6511 8.2101 30.7101 8.36971L31.9938 11.8403C32.0123 11.8904 32.0521 11.93 32.1021 11.9486L35.5736 13.2332C35.7328 13.2925 35.7329 13.5178 35.5736 13.577L32.1021 14.8607C32.0521 14.8792 32.0124 14.919 31.9938 14.969L30.7101 18.4405C30.651 18.5997 30.4257 18.5995 30.3664 18.4405L29.0818 14.969C29.0632 14.9189 29.0235 14.8792 28.9735 14.8607L25.5028 13.577C25.3432 13.5179 25.3432 13.2923 25.5028 13.2332L28.9735 11.9486C29.0236 11.9301 29.0632 11.8905 29.0818 11.8403L30.3664 8.36971Z" fill="white"/>
</svg>
