<svg width="44" height="44" viewBox="0 0 44 44" fill="none" xmlns="http://www.w3.org/2000/svg">
<rect width="44" height="44" fill="#D796C1"/>
<path d="M24.8496 13.9687C28.278 12.2184 32.7421 14.7363 32.7422 19.0332C32.7422 26.1551 25.069 30.7593 22.627 32.2246C22.5501 32.2707 22.4782 32.3136 22.4121 32.3535C22.1559 32.508 21.8441 32.508 21.5879 32.3535C21.5218 32.3136 21.4499 32.2707 21.373 32.2246C18.931 30.7593 11.2578 26.1551 11.2578 19.0332C11.2579 14.7363 15.722 12.2184 19.1504 13.9687L21.4238 15.1289C21.7866 15.314 22.2134 15.314 22.5762 15.1289L24.8496 13.9687ZM22 19.4628C21.5254 19.4628 21.1407 19.8476 21.1406 20.3222V22.041H19.4219C18.9473 22.041 18.5625 22.4258 18.5625 22.9003C18.5625 23.3749 18.9473 23.7597 19.4219 23.7597H21.1406V25.4785C21.1407 25.9531 21.5254 26.3378 22 26.3378C22.4746 26.3378 22.8593 25.9531 22.8594 25.4785V23.7597H24.5781C25.0527 23.7597 25.4375 23.3749 25.4375 22.9003C25.4375 22.4258 25.0527 22.041 24.5781 22.041H22.8594V20.3222C22.8593 19.8476 22.4746 19.4628 22 19.4628Z" fill="white"/>
</svg>
